<svg width="41" height="41" viewBox="0 0 41 41" fill="none" xmlns="http://www.w3.org/2000/svg">
  <path d="M0 20.5C0 9.17816 9.17816 0 20.5 0V0C31.8218 0 41 9.17816 41 20.5V20.5C41 31.8218 31.8218 41 20.5 41V41C9.17816 41 0 31.8218 0 20.5V20.5Z M20 31C14.477 31 10 26.523 10 21C10 15.477 14.477 11 20 11C21.5527 10.9988 23.0842 11.3598 24.4729 12.0541C25.8617 12.7485 27.0693 13.7572 28 15H25.29C24.1352 13.9818 22.7112 13.3184 21.1887 13.0894C19.6663 12.8604 18.1101 13.0757 16.7069 13.7092C15.3037 14.3428 14.1131 15.3678 13.2781 16.6612C12.443 17.9546 11.9989 19.4615 11.999 21.0011C11.9991 22.5407 12.4435 24.0475 13.2788 25.3408C14.1141 26.6341 15.3048 27.6589 16.7081 28.2922C18.1114 28.9255 19.6676 29.1405 21.19 28.9113C22.7125 28.6821 24.1364 28.0184 25.291 27H28.001C27.0702 28.243 25.8624 29.2517 24.4735 29.9461C23.0846 30.6405 21.5528 31.0013 20 31V31ZM27 25V22H19V20H27V17L32 21L27 25Z" >
</svg>
